/* XPM */
static char *_d939c208666494ec7fd34f8b47ffd7aRnWORVubBvtu7vQX[] = {
/* columns rows colors chars-per-pixel */
"98 98 13 1 ",
"  c #7A0C0C",
". c #61402C",
"X c #152563",
"o c #AD1111",
"O c #D43220",
"+ c #FF513D",
"@ c #E57028",
"# c #F7AC37",
"$ c #FBDF6B",
"% c #2992CF",
"& c #4DC3FF",
"* c #8CD9FF",
"= c white",
/* pixels */
"=============================================........=============================================",
"============================================.$$$$$$$$.============================================",
"============================================.$$$##$$$.============================================",
"=============================================.$####$.=============================================",
"=============================================.######.=============================================",
"==============================================.####.==============================================",
"==============================================.####.==============================================",
"==============================================.####.==============================================",
"==============================================.$###.==============================================",
"==============================================.$$$#.==============================================",
"==============================================.$$$$.==============================================",
"==============================================.#$$$.==============================================",
"==============================================.$##$.==============================================",
"==============================================.#$$#.==============================================",
"==============================================.###$.==============================================",
"==============================================.####.==============================================",
"==============================================.@##@.==============================================",
"=============================================.@@..@@.=============================================",
"=============================================...$$...=============================================",
"=============================================..$##$..=============================================",
"============================================.$$#@@#$$.============================================",
"==========================================..$$#@##@#$$..==========================================",
"========================================..$$#@@@..@@@#$$..========================================",
"======================================..$$##@#..@@..#@##$$..======================================",
"=====================================.$$#@@@#.@@@@@@.#@@@#$$.=====================================",
"====================================.$#@@##..@@####@@..##@@#$.====================================",
"===================================.$#@###@..@######@..@###@#$.===================================",
"===================================.$@@##@.=.########.=.@##@@$.===================================",
"==================================.$##@@..==.########.==..@@##$.==================================",
"==================================.$#@..====.########.====..@#$.==================================",
"==================================.$..======.########.======..$.==================================",
"==================================..========.########.========..==================================",
"==========================================..............==========================================",
"====================================......@############@......====================================",
"================================....@@######################@@....================================",
"============================....##################################....============================",
"=========================...$$$#$################################$#$$$...=========================",
"=======================..$#$$$$$#$##############################$#$$$$$#$..=======================",
"=====================..@##$#$$$$$#$############################$#$$$$$#$##@..=====================",
"===================..@#####$#$$$$$#$######@............@######$#$$$$$#$#####@..===================",
"XXX===============.@########$#$$$$$#$@.....=.@@@@@@@@.=.....@$#$$$$$#$########@.===============   ",
"X*&XXX===========.@##########$#$......======.@@@##@@@.======......$#$##########@.===========   O+ ",
"X*&&&&XXXX======.@#########@....============.@######@.============....@#########@.======    OOOO+ ",
"X*&&&&&&&&XXX==.@@@#####@@..================.########.================..@@#####@@@.==   OOOOOOOO+ ",
"=X*&&&&&&&&&&XXXXX@@@@@@..==================.########.==================..@@@@@@     OOOOOOOOOO+ =",
"=X**&&&&&&&&&&&&&&XXXXX.====================.$#######.====================.     OOOOOOOOOOOOOO++ =",
"==X***&&&&&&&&&&&&&&&&&XXXXXX===============.$$######.===============      OOOOOOOOOOOOOOOOO+++ ==",
"===XX****&&&&&&&&&&&&&&&*&***XXXXXXX========.$$$#####.========       +++O+OOOOOOOOOOOOOOO++++  ===",
"===X%XXXX****&&&&&&&&&&&&*&******&*&XXXXX===.$$$$####.===     O+O++++++O+OOOOOOOOOOOO++++    o ===",
"===X*%%%%XXXX****&&&&&&&&*&******&&*&&&&&XX=.$$$$$###.=  OOOOO+OO++++++O+OOOOOOOO++++    oooo+ ===",
"====X*&&&%%%%XXXX****&&&&&*&******&*&&&&&&&XX$$$$$$##  OOOOOOO+O++++++O+OOOOO++++    ooooOOO+ ====",
"====X**&&&&&&%%%%XXXX****&*&******&&*&&&&&&&&X$$$$$$ OOOOOOOO+OO++++++O+O++++    ooooOOOOOO++ ====",
"=====X**&&&&&&&&&%%%%XXXX**********&*&&&&&&&&X$$$$$$ OOOOOOOO+O++++++++++    ooooOOOOOOOOO++ =====",
"======XX***&&&&&&&&&&%%%%XXXX******&&*&&&&&&&&X$$$$ OOOOOOOO+OO++++++    ooooOOOOOOOOOO+++  ======",
"=======XXXX***&&&&&&&&&&&&&&*XXXXXXX&*&&&&&&&&X$$$$ OOOOOOOO+O       +OOOOOOOOOOOOOO+++    =======",
"=======X*%%XXX****&&&&&&&&&&*&******XXXXX&&&&&X#$$$ OOOOO     ++++++O+OOOOOOOOOO++++   oo+ =======",
"========X*%%%%XXXX****&&&&&&&*&******&*&&X&&&&&X#$ OOOOO OO+O++++++O+OOOOOOO++++    oooO+ ========",
"=========X*&&&%%%%XXXX****&&&*&******&&*&&X&&&&X$# OOOO OO+OO++++++O+OOO++++    ooooOOO+ =========",
"==========X*&&&&&&%%%%XXXX*****&******&*&&X&&&&X$$ OOOO OO+O++++++O+++++    ooooOOOOOO+ ==========",
"===========X**&&&&&&&&%%%%XXXX********&&*&X&&&&&X OOOOO O+OO++++++++    ooooOOOOOOOO++ ===========",
"============XX**&&&&&&&&&&%%%%XXXX*****&*&&X&&&&X OOOO OO+O+++++    ooooOOOOOOOOOO++  ============",
"=============.XX**&&&&&&&&&&&&&*&*XXXX*&&*&X&&&&X OOOO O+OO+    +O+OOOOOOOOOOOOO++  .=============",
"=============.@@XX****&&&&&&&&&&*&****XX&*&X%&&&X OOOo O+O  ++++O+OOOOOOOOOO++++  @@.=============",
"==============.@@@XXXX****&&&&&&*&******XX*%X%&%X oOo o+  ++++++O+OOOOOO++++    @@@.==============",
"==============.@#@@@XXXXXX*****&&*&******&X%X%%%X ooo o O++++++O+OO+++++      @@@#@.==============",
"===============.@###@@XX%%XXXXX**********&&XX%%%X ooo  OO++++++++++     oo  @@###@.===============",
"===============.@#######XX%%%%%XXXX&******&XX%%%%Xooo  O++++++O    ooooo  #######@.===============",
"================.@########XX%%%%%%&XXXX***%%XX%%%Xoo  oo+++    Ooooooo  ########@.================",
"=================.@#########XX%%%%%&%&&XXXX%%X%%%Xoo oo    OOoOooooo  #########@.=================",
"==================.@##########XXX%%&&%&&&&&XXXX%%Xo    OOOOOoOOoo   ##########@.==================",
"===================..@#######$$$$XXX&%&&&&&&%%X%%%X ooOOOOOOoO   $$$$#######@..===================",
"=====================..@####$$$$$$#$XXXX&&&&%%%X%%XoooOOOO    $#$$$$$$####@..=====================",
"=======================..@#$$$$$$#$#####XXXX%%XX%%X oO    #####$#$$$$$$#@..=======================",
"=========================...$$$$#$##########XXXXX%X   ##########$#$$$$...=========================",
"============================....$############# XX%%X#############$....============================",
"================================....@@######## oX%%X########@@....================================",
"====================================.......@## o X%X##@.......====================================",
"===========================================.. oo X%%X..===========================================",
"============================================. o @@X%X.============================================",
"============================================.  @@@@XX.============================================",
"============================================.@@@@@@@@.============================================",
"============================================.@@#@@#@@.============================================",
"============================================.@##@@##@.============================================",
"============================================.##@##@##.============================================",
"============================================.##@##@##.============================================",
"============================================.#@####@#.============================================",
"============================================.#@###$@#.============================================",
"============================================.@####$$@.============================================",
"============================================.@###$$$@.============================================",
"============================================.@###$$$@.============================================",
"=============================================.##$$$$.=============================================",
"=============================================.##$$$$.=============================================",
"==============================================.$$$$.==============================================",
"==============================================.$$$$.==============================================",
"===============================================.$$.===============================================",
"===============================================.$$.===============================================",
"================================================..================================================",
"================================================..================================================"
};
