/* XPM */
static char *_8433ed160584b18dc59fd9d4b403459P2woUAjoTge7Wv8K[] = {
/* columns rows colors chars-per-pixel */
"48 48 19 1 ",
"  c black",
". c #150000",
"X c #08300D",
"o c #61402C",
"O c #E57028",
"+ c #985848",
"@ c #F7AC37",
"# c #C88870",
"$ c #EDA17E",
"% c #FBDF6B",
"& c #215BA3",
"* c #2992CF",
"= c #4291D6",
"- c #4DC3FF",
"; c #F8C0A0",
": c #8CD9FF",
"> c #CCCAC2",
", c #EAE7DC",
"< c white",
/* pixels */
"<<<<<<<<<<<<<<<<<<<<<<<<<<<<<<<<<<<<<<<<<<<<<<<<",
"<<<<<<<<<<<<<<<<<<<<<<<<<<<  <<<<<<<<<<<<<<<<<<<",
"<<<<<<  <<<<<<<<<<<<<<<<<<< o <<<<<<<<<<<<<<<<<<",
"<<<<<< o <<<<<         <<<< Oo <<<<<<<<<<<<<<<<<",
"<<<<<< oo <<<< &&&&&&&&      OO <<<<<<<<<<<<<<<<",
"<<<<<< oOo       &-----&&&&&&     <<<<<<<<<<<<<<",
"<<<<<< o@Ooo&&&&&&&&---------&&&&&   <<<<<<<<<<<",
"<<<<<< oO@@Ooo======&&&-----------&&&  <<<<<<<<<",
"<<<<<< o@O@@@Ooo&&=====&&&-----------&&  <<<<<<<",
"<<<<<<< o@OO@@@%oo&&&&====&&&----------&& <<<<<<",
"<<<<<<< o@@@OO%%%%oo--&&&&===&&&--------:& <<<<<",
"<<<<<<< &oO@@%OO%%@Ooo----&&&&&&&&-----:::& <<<<",
"<<<<<    o@O%%%%OO@%@Oo-------&&&&&&--::::& <<<<",
"<<<<< && &o%OO%%@@OO@@Oo---------&&&&::::--& <<<",
"<<<<< &=&&=o%%OO@%@@O@@o---------::::-&---=& <<<",
"<<<<< &===&=o%@@OO@@@O@o&&&&---:::::-==&=-=& <<<",
"<<<<<< &===&&oo%@@OO@O@o====&&&&&&&-===&===& <<<",
"<<<<<< &=====&&oo@@@O@o------&&$$$$&&&&&&=&& <<<",
"<<<<<<< &======&&oo@O@o-----&$$$;;;;;##&&&&& <<<",
"<<<<<<< &&=======&&oOo----&&$$;;;;;;;;##&&&=& <<",
"<<<<<< &&=&&&&&====&&&&&&&$$$;;;;;;;;;;##&&&=& <",
"<<<<<< &=&=&&##&&======&&&$$;;;;;;;;;;;;## &=& <",
"<<<<<< &=&=&#;;#&&====&&&$$++++;;;;;;;;;## &=& <",
"<<<<<< &=&=&##;;#&&==&&&$$;##..+;;;;;;;;#+ &=& <",
"<<<<<< &=&=&#;#;;&&&&&$$$;#,,,&.+;;;;;;#++ &=& <",
"<<<<<< &=&=&#;##;;&&&$$$;;;,,*& .+;;;;$++. &=& <",
"<<<<<<< &=&&#;;+;;&&$$$;;;;,,,**..+$$$+... && <<",
"<<<<<<< &&=&&#;+#;&&$$;;;;;$,,,,.+$#$+.,&  && <<",
"<<<<<<<< &&=&#;##;&$$;;;;;;;$$  #$$$#.,*.  & <<<",
"<<<<<<<< &&&&&#;#;$$$;;;;;;;;;$$$$;#$#,,, & <<<<",
"<<<<<<<<< &&&&#;;#$$;;;;;;;;;;;;;;;#$#+    <<<<<",
"<<<<<<<<< &&&&&#;#$$;;;;;;;;;;;;;;;#$$$$+ <<<<<<",
"<<<<<<<<<< &&&&&##$;;;;;;;;;;;;;;;;;$$$$+ <<<<<<",
"<<<<<<<<<<< &&&&&#$;;;;;;;;;;;;;;;;;#$$$ <<<<<<<",
"<<<<<<<<<<<< &&&&#$;;;;;;;;;;;;;;;;;#$$+ <<<<<<<",
"<<<<<<<<<<<< #&&&#$;;;;;;;;;;;;;;;###$$+ <<<<<<<",
"<<<<<<<<<<<< ##&&+$$;;;;;;;;;;;;;;;;$$$ <<<<<<<<",
"<<<<<<<<<<<< ####+$$;;;;;;;;#;;;;;;;$$+ <<<<<<<<",
"<<<<<<<<<<< ##$$$#+$$;;;;;;;;#;;;;;;$$+ <<<<<<<<",
"<<<<<<<<<  ###$$$$#+$$;;;;;;;;;####;$$ <<<<<<<<<",
"<<<<<<<<< ,,>>#$$$$#+$$;;;;;;;;;;;;$$+ <<<<<<<<<",
"<<<<<<<< ,@%,,>>#$$$#++$;;;;;;;;;;;$$+ <<<<<<<<<",
"<<<<<<<< ,%@,,,,>>#$$$#++$;;;;;;;;$$+ <<<<<<<<<<",
"<<<<<<< >,,,,,,,,,>>#$$$#++$;;;;;$$$+ <<<<<<<<<<",
"       XX>>,,,,,,,,,>>#$$##++$$$$$$+ <<<<<<<<<<<",
"XXXXXXXXXXX>>,,,,,,,,,>>#$$##++++++ <<<<<<<<<<<<",
"XXXXXXXXXXXXX>,,,,,,,,,,>>###      <<<<<<<<<<<<<",
"XXXXXXXXXXXXXX>,,,,,,,,,,,># <<<<<<<<<<<<<<<<<<<"
};
