/* XPM */
static char *_3f3318f70cf46428e90082786748bdcTYnf1dakNPXQ12am[] = {
/* columns rows colors chars-per-pixel */
"98 98 9 1 ",
"  c #1D2329",
". c #61402C",
"X c #475969",
"o c #E57028",
"O c #F7AC37",
"+ c #FBDF6B",
"@ c #7290A8",
"# c #C1C8D6",
"$ c white",
/* pixels */
"$$$$$$$$$$$$$$$$$$$$$$$$$$$$$$$$$$$$$$$$$$$$$........$$$$$$$$$$$$$$$$$$$$$$$$$$$$$$$$$$$$$$$$$$$$$",
"$$$$$$$$$$$$$$$$$$$$$$$$$$$$$$$$$$$$$$$$$$$$.++++++++.$$$$$$$$$$$$$$$$$$$$$$$$$$$$$$$$$$$$$$$$$$$$",
"$$$$$$$$$$$$$$$$$$$$$$$$$$$$$$$$$$$$$$$$$$$$.+++OO+++.$$$$$$$$$$$$$$$$$$$$$$$$$$$$$$$$$$$$$$$$$$$$",
"$$$$$$$$$$$$$$$$$$$$$$$$$$$$$$$$$$$$$$$$$$$$$.+OOOO+.$$$$$$$$$$$$$$$$$$$$$$$$$$$$$$$$$$$$$$$$$$$$$",
"$$$$$$$$$$$$$$$$$$$$$$$$$$$$$$$$$$$$$$$$$$$$$.OOOOOO.$$$$$$$$$$$$$$$$$$$$$$$$$$$$$$$$$$$$$$$$$$$$$",
"$$$$$$$$$$$$$$$$$$$$$$$$$$$$$$$$$$$$$$$$$$$$$$.OOOO.$$$$$$$$$$$$$$$$$$$$$$$$$$$$$$$$$$$$$$$$$$$$$$",
"$$$$$$$$$$$$$$$$$$$$$$$$$$$$$$$$$$$$$$$$$$$$$$.OOOO.$$$$$$$$$$$$$$$$$$$$$$$$$$$$$$$$$$$$$$$$$$$$$$",
"$$$$$$$$$$$$$$$$$$$$$$$$$$$$$$$$$$$$$$$$$$$$$$.OOOO.$$$$$$$$$$$$$$$$$$$$$$$$$$$$$$$$$$$$$$$$$$$$$$",
"$$$$$$$$$$$$$$$$$$$$$$$$$$$$$$$$$$$$$$$$$$$$$$.+OOO.$$$$$$$$$$$$$$$$$$$$$$$$$$$$$$$$$$$$$$$$$$$$$$",
"$$$$$$$$$$$$$$$$$$$$$$$$$$$$$$$$$$$$$$$$$$$$$$.+++O.$$$$$$$$$$$$$$$$$$$$$$$$$$$$$$$$$$$$$$$$$$$$$$",
"$$$$$$$$$$$$$$$$$$$$$$$$$$$$$$$$$$$$$$$$$$$$$$.++++.$$$$$$$$$$$$$$$$$$$$$$$$$$$$$$$$$$$$$$$$$$$$$$",
"$$$$$$$$$$$$$$$$$$$$$$$$$$$$$$$$$$$$$$$$$$$$$$.O+++.$$$$$$$$$$$$$$$$$$$$$$$$$$$$$$$$$$$$$$$$$$$$$$",
"$$$$$$$$$$$$$$$$$$$$$$$$$$$$$$$$$$$$$$$$$$$$$$.+OO+.$$$$$$$$$$$$$$$$$$$$$$$$$$$$$$$$$$$$$$$$$$$$$$",
"$$$$$$$$$$$$$$$$$$$$$$$$$$$$$$$$$$$$$$$$$$$$$$.O++O.$$$$$$$$$$$$$$$$$$$$$$$$$$$$$$$$$$$$$$$$$$$$$$",
"$$$$$$$$$$$$$$$$$$$$$$$$$$$$$$$$$$$$$$$$$$$$$$.OOO+.$$$$$$$$$$$$$$$$$$$$$$$$$$$$$$$$$$$$$$$$$$$$$$",
"$$$$$$$$$$$$$$$$$$$$$$$$$$$$$$$$$$$$$$$$$$$$$$.OOOO.$$$$$$$$$$$$$$$$$$$$$$$$$$$$$$$$$$$$$$$$$$$$$$",
"$$$$$$$$$$$$$$$$$$$$$$$$$$$$$$$$$$$$$$$$$$$$$$.oOOo.$$$$$$$$$$$$$$$$$$$$$$$$$$$$$$$$$$$$$$$$$$$$$$",
"$$$$$$$$$$$$$$$$$$$$$$$$$$$$$$$$$$$$$$$$$$$$$.oo..oo.$$$$$$$$$$$$$$$$$$$$$$$$$$$$$$$$$$$$$$$$$$$$$",
"$$$$$$$$$$$$$$$$$$$$$$$$$$$$$$$$$$$$$$$$$$$$$...++...$$$$$$$$$$$$$$$$$$$$$$$$$$$$$$$$$$$$$$$$$$$$$",
"$$$$$$$$$$$$$$$$$$$$$$$$$$$$$$$$$$$$$$$$$$$$$..+OO+..$$$$$$$$$$$$$$$$$$$$$$$$$$$$$$$$$$$$$$$$$$$$$",
"$$$$$$$$$$$$$$$$$$$$$$$$$$$$$$$$$$$$$$$$$$$$.++OooO++.$$$$$$$$$$$$$$$$$$$$$$$$$$$$$$$$$$$$$$$$$$$$",
"$$$$$$$$$$$$$$$$$$$$$$$$$$$$$$$$$$$$$$$$$$..++OoOOoO++..$$$$$$$$$$$$$$$$$$$$$$$$$$$$$$$$$$$$$$$$$$",
"$$$$$$$$$$$$$$$$$$$$$$$$$$$$$$$$$$$$$$$$..++Oooo..oooO++..$$$$$$$$$$$$$$$$$$$$$$$$$$$$$$$$$$$$$$$$",
"$$$$$$$$$$$$$$$$$$$$$$$$$$$$$$$$$$$$$$..++OOoO..oo..OoOO++..$$$$$$$$$$$$$$$$$$$$$$$$$$$$$$$$$$$$$$",
"$$$$$$$$$$$$$$$$$$$$$$$$$$$$$$$$$$$$$.++OoooO.oooooo.OoooO++.$$$$$$$$$$$$$$$$$$$$$$$$$$$$$$$$$$$$$",
"$$$$$$$$$$$$$$$$$$$$$$$$$$$$$$$$$$$$.+OooOO..ooOOOOoo..OOooO+.$$$$$$$$$$$$$$$$$$$$$$$$$$$$$$$$$$$$",
"$$$$$$$$$$$$$$$$$$$$$$$$$$$$$$$$$$$.+OoOOOo..oOOOOOOo..oOOOoO+.$$$$$$$$$$$$$$$$$$$$$$$$$$$$$$$$$$$",
"$$$$$$$$$$$$$$$$$$$$$$$$$$$$$$$$$$$.+ooOOo.$.OOOOOOOO.$.oOOoo+.$$$$$$$$$$$$$$$$$$$$$$$$$$$$$$$$$$$",
"$$$$$$$$$$$$$$$$$$$$$$$$$$$$$$$$$$.+OOoo..$$.OOOOOOOO.$$..ooOO+.$$$$$$$$$$$$$$$$$$$$$$$$$$$$$$$$$$",
"$$$$$$$$$$$$$$$$$$$$$$$$$$$$$$$$$$.+Oo..$$$$.OOOOOOOO.$$$$..oO+.$$$$$$$$$$$$$$$$$$$$$$$$$$$$$$$$$$",
"$$$$$$$$$$$$$$$$$$$$$$$$$$$$$$$$$$.+..$$$$$$.OOOOOOOO.$$$$$$..+.$$$$$$$$$$$$$$$$$$$$$$$$$$$$$$$$$$",
"$$$$$$$$$$$$$$$$$$$$$$$$$$$$$$$$$$..$$$$$$$$.OOOOOOOO.$$$$$$$$..$$$$$$$$$$$$$$$$$$$$$$$$$$$$$$$$$$",
"$$$$$$$$$$$$$$$$$$$$$$$$$$$$$$$$$$$$$$$$$$..............$$$$$$$$$$$$$$$$$$$$$$$$$$$$$$$$$$$$$$$$$$",
"$$$$$$$$$$$$$$$$$$$$$$$$$$$$$$$$$$$$......oOOOOOOOOOOOOo......$$$$$$$$$$$$$$$$$$$$$$$$$$$$$$$$$$$$",
"$$$$$$$$$$$$$$$$$$$$$$$$$$$$$$$$....ooOOOOOOOOOOOOOOOOOOOOOOoo....$$$$$$$$$$$$$$$$$$$$$$$$$$$$$$$$",
"$$$$$$$$$$$$$$$$$$$$$$$$$$$$....OOOOOOOOOOOOOOOOOOOOOOOOOOOOOOOOOO....$$$$$$$$$$$$$$$$$$$$$$$$$$$$",
"$$$$$$$$$$$$$$$$$$$$$$$$$...+++O+OOOOOOOOOOOOOOOOOOOOOOOOOOOOOOOO+O+++...$$$$$$$$$$$$$$$$$$$$$$$$$",
"$$$$$$$$$$$$$$$$$$$$$$$..+O+++++O+OOOOOOOOOOOOOOOOOOOOOOOOOOOOOO+O+++++O+..$$$$$$$$$$$$$$$$$$$$$$$",
"$$$$$$$$$$$$$$$$$$$$$..oOO+O+++++O+OOOOOOOOOOOOOOOOOOOOOOOOOOOO+O+++++O+OOo..$$$$$$$$$$$$$$$$$$$$$",
"$$$$$$$$$$$$$$$$$$$..oOOOOO+O+++++O+OOOOOOo............oOOOOOO+O+++++O+OOOOOo..$$$$$$$$$$$$$$$$$$$",
"   $$$$$$$$$$$$$$$.oOOOOOOOO+O+++++O+o.....$.oooooooo.$.....o+O+++++O+OOOOOOOOo.$$$$$$$$$$$$$$$   ",
" #@   $$$$$$$$$$$.oOOOOOOOOOO+O+......$$$$$$.oooOOooo.$$$$$$......+O+OOOOOOOOOOo.$$$$$$$$$$$   @# ",
" #@@@@    $$$$$$.oOOOOOOOOOo....$$$$$$$$$$$$.oOOOOOOo.$$$$$$$$$$$$....oOOOOOOOOOo.$$$$$$    @@@@# ",
" #@@@@@@@@   $$.oooOOOOOoo..$$$$$$$$$$$$$$$$.OOOOOOOO.$$$$$$$$$$$$$$$$..ooOOOOOooo.$$   @@@@@@@@# ",
"$ #@@@@@@@@@@     oooooo..$$$$$$$$$$$$$$$$$$.OOOOOOOO.$$$$$$$$$$$$$$$$$$..oooooo     @@@@@@@@@@# $",
"$ ##@@@@@@@@@@@@@@     .$$$$$$$$$$$$$$$$$$$$.+OOOOOOO.$$$$$$$$$$$$$$$$$$$$.     @@@@@@@@@@@@@@## $",
"$$ ###@@@@@@@@@@@@@@@@@      $$$$$$$$$$$$$$$.++OOOOOO.$$$$$$$$$$$$$$$      @@@@@@@@@@@@@@@@@### $$",
"$$$  ####@@@@@@@@@@@@@@@#@###       $$$$$$$$.+++OOOOO.$$$$$$$$       ###@#@@@@@@@@@@@@@@@####  $$$",
"$$$ X    ####@@@@@@@@@@@@#@######@#@     $$$.++++OOOO.$$$     @#@######@#@@@@@@@@@@@@####    X $$$",
"$$$ #XXXX    ####@@@@@@@@#@######@@#@@@@@  $.+++++OOO.$  @@@@@#@@######@#@@@@@@@@####    XXXX# $$$",
"$$$$ #@@@XXXX    ####@@@@@#@######@#@@@@@@@  ++++++OO  @@@@@@@#@######@#@@@@@####    XXXX@@@# $$$$",
"$$$$ ##@@@@@@XXXX    ####@#@######@@#@@@@@@@@ ++++++ @@@@@@@@#@@######@#@####    XXXX@@@@@@## $$$$",
"$$$$$ ##@@@@@@@@@XXXX    ##########@#@@@@@@@@ ++++++ @@@@@@@@#@##########    XXXX@@@@@@@@@## $$$$$",
"$$$$$$  ###@@@@@@@@@@XXXX    ######@@#@@@@@@@@ ++++ @@@@@@@@#@@######    XXXX@@@@@@@@@@###  $$$$$$",
"$$$$$$$    ###@@@@@@@@@@@@@@#       @#@@@@@@@@ ++++ @@@@@@@@#@       #@@@@@@@@@@@@@@###    $$$$$$$",
"$$$$$$$ #XX   ####@@@@@@@@@@#@######     @@@@@ O+++ @@@@@     ######@#@@@@@@@@@@####   XX# $$$$$$$",
"$$$$$$$$ #XXXX    ####@@@@@@@#@######@#@@ @@@@@ O+ @@@@@ @@#@######@#@@@@@@@####    XXXX# $$$$$$$$",
"$$$$$$$$$ #@@@XXXX    ####@@@#@######@@#@@ @@@@ +O @@@@ @@#@@######@#@@@####    XXXX@@@# $$$$$$$$$",
"$$$$$$$$$$ #@@@@@@XXXX    #####@######@#@@ @@@@ ++ @@@@ @@#@######@#####    XXXX@@@@@@# $$$$$$$$$$",
"$$$$$$$$$$$ ##@@@@@@@@XXXX    ########@@#@ @@@@@  @@@@@ @#@@########    XXXX@@@@@@@@## $$$$$$$$$$$",
"$$$$$$$$$$$$  ##@@@@@@@@@@XXXX    #####@#@@ @@@@  @@@@ @@#@#####    XXXX@@@@@@@@@@##  $$$$$$$$$$$$",
"$$$$$$$$$$$$$.  ##@@@@@@@@@@@@@#@#    #@@#@ @@@@  @@@@ @#@@#    #@#@@@@@@@@@@@@@##  .$$$$$$$$$$$$$",
"$$$$$$$$$$$$$.oo  ####@@@@@@@@@@#@####  @#@ X@@@  @@@X @#@  ####@#@@@@@@@@@@####  oo.$$$$$$$$$$$$$",
"$$$$$$$$$$$$$$.ooo    ####@@@@@@#@######  #X X@X  X@X X#  ######@#@@@@@@####    ooo.$$$$$$$$$$$$$$",
"$$$$$$$$$$$$$$.oOooo      #####@@#@######@ X XXX  XXX X @######@#@@#####      oooOo.$$$$$$$$$$$$$$",
"$$$$$$$$$$$$$$$.oOOOoo  XX     ##########@@  XXX  XXX  @@##########     XX  ooOOOo.$$$$$$$$$$$$$$$",
"$$$$$$$$$$$$$$$.oOOOOOOO  XXXXX    @######@  XXXX XXX  @######@    XXXXX  OOOOOOOo.$$$$$$$$$$$$$$$",
"$$$$$$$$$$$$$$$$.oOOOOOOOO  XXXXXX@    ###XX  XXX XX  XX###    @XXXXXX  OOOOOOOOo.$$$$$$$$$$$$$$$$",
"$$$$$$$$$$$$$$$$$.oOOOOOOOOO  XXXXX@X@@    XX XXX XX XX    @@X@XXXXX  OOOOOOOOOo.$$$$$$$$$$$$$$$$$",
"$$$$$$$$$$$$$$$$$$.oOOOOOOOOOO   XX@@X@@@@@    XX X    @@@@@X@@XX   OOOOOOOOOOo.$$$$$$$$$$$$$$$$$$",
"$$$$$$$$$$$$$$$$$$$..oOOOOOOO++++   @X@@@@@@XX XXX  XX@@@@@@X@   ++++OOOOOOOo..$$$$$$$$$$$$$$$$$$$",
"$$$$$$$$$$$$$$$$$$$$$..oOOOO++++++O+    @@@@XXX XX XXX@@@@    +O++++++OOOOo..$$$$$$$$$$$$$$$$$$$$$",
"$$$$$$$$$$$$$$$$$$$$$$$..oO++++++O+OOOOO    XX  XX  XX    OOOOO+O++++++Oo..$$$$$$$$$$$$$$$$$$$$$$$",
"$$$$$$$$$$$$$$$$$$$$$$$$$...++++O+OOOOOOOOOO     X    OOOOOOOOOO+O++++...$$$$$$$$$$$$$$$$$$$$$$$$$",
"$$$$$$$$$$$$$$$$$$$$$$$$$$$$....+OOOOOOOOOOOOO   XX OOOOOOOOOOOOO+....$$$$$$$$$$$$$$$$$$$$$$$$$$$$",
"$$$$$$$$$$$$$$$$$$$$$$$$$$$$$$$$....ooOOOOOOOO X XX OOOOOOOOoo....$$$$$$$$$$$$$$$$$$$$$$$$$$$$$$$$",
"$$$$$$$$$$$$$$$$$$$$$$$$$$$$$$$$$$$$.......oOO X  X OOo.......$$$$$$$$$$$$$$$$$$$$$$$$$$$$$$$$$$$$",
"$$$$$$$$$$$$$$$$$$$$$$$$$$$$$$$$$$$$$$$$$$$.. XX  XX ..$$$$$$$$$$$$$$$$$$$$$$$$$$$$$$$$$$$$$$$$$$$",
"$$$$$$$$$$$$$$$$$$$$$$$$$$$$$$$$$$$$$$$$$$$$. X oo X .$$$$$$$$$$$$$$$$$$$$$$$$$$$$$$$$$$$$$$$$$$$$",
"$$$$$$$$$$$$$$$$$$$$$$$$$$$$$$$$$$$$$$$$$$$$.  oooo  .$$$$$$$$$$$$$$$$$$$$$$$$$$$$$$$$$$$$$$$$$$$$",
"$$$$$$$$$$$$$$$$$$$$$$$$$$$$$$$$$$$$$$$$$$$$.oooooooo.$$$$$$$$$$$$$$$$$$$$$$$$$$$$$$$$$$$$$$$$$$$$",
"$$$$$$$$$$$$$$$$$$$$$$$$$$$$$$$$$$$$$$$$$$$$.ooOooOoo.$$$$$$$$$$$$$$$$$$$$$$$$$$$$$$$$$$$$$$$$$$$$",
"$$$$$$$$$$$$$$$$$$$$$$$$$$$$$$$$$$$$$$$$$$$$.oOOooOOo.$$$$$$$$$$$$$$$$$$$$$$$$$$$$$$$$$$$$$$$$$$$$",
"$$$$$$$$$$$$$$$$$$$$$$$$$$$$$$$$$$$$$$$$$$$$.OOoOOoOO.$$$$$$$$$$$$$$$$$$$$$$$$$$$$$$$$$$$$$$$$$$$$",
"$$$$$$$$$$$$$$$$$$$$$$$$$$$$$$$$$$$$$$$$$$$$.OOoOOoOO.$$$$$$$$$$$$$$$$$$$$$$$$$$$$$$$$$$$$$$$$$$$$",
"$$$$$$$$$$$$$$$$$$$$$$$$$$$$$$$$$$$$$$$$$$$$.OoOOOOoO.$$$$$$$$$$$$$$$$$$$$$$$$$$$$$$$$$$$$$$$$$$$$",
"$$$$$$$$$$$$$$$$$$$$$$$$$$$$$$$$$$$$$$$$$$$$.OoOOO+oO.$$$$$$$$$$$$$$$$$$$$$$$$$$$$$$$$$$$$$$$$$$$$",
"$$$$$$$$$$$$$$$$$$$$$$$$$$$$$$$$$$$$$$$$$$$$.oOOOO++o.$$$$$$$$$$$$$$$$$$$$$$$$$$$$$$$$$$$$$$$$$$$$",
"$$$$$$$$$$$$$$$$$$$$$$$$$$$$$$$$$$$$$$$$$$$$.oOOO+++o.$$$$$$$$$$$$$$$$$$$$$$$$$$$$$$$$$$$$$$$$$$$$",
"$$$$$$$$$$$$$$$$$$$$$$$$$$$$$$$$$$$$$$$$$$$$.oOOO+++o.$$$$$$$$$$$$$$$$$$$$$$$$$$$$$$$$$$$$$$$$$$$$",
"$$$$$$$$$$$$$$$$$$$$$$$$$$$$$$$$$$$$$$$$$$$$$.OO++++.$$$$$$$$$$$$$$$$$$$$$$$$$$$$$$$$$$$$$$$$$$$$$",
"$$$$$$$$$$$$$$$$$$$$$$$$$$$$$$$$$$$$$$$$$$$$$.OO++++.$$$$$$$$$$$$$$$$$$$$$$$$$$$$$$$$$$$$$$$$$$$$$",
"$$$$$$$$$$$$$$$$$$$$$$$$$$$$$$$$$$$$$$$$$$$$$$.++++.$$$$$$$$$$$$$$$$$$$$$$$$$$$$$$$$$$$$$$$$$$$$$$",
"$$$$$$$$$$$$$$$$$$$$$$$$$$$$$$$$$$$$$$$$$$$$$$.++++.$$$$$$$$$$$$$$$$$$$$$$$$$$$$$$$$$$$$$$$$$$$$$$",
"$$$$$$$$$$$$$$$$$$$$$$$$$$$$$$$$$$$$$$$$$$$$$$$.++.$$$$$$$$$$$$$$$$$$$$$$$$$$$$$$$$$$$$$$$$$$$$$$$",
"$$$$$$$$$$$$$$$$$$$$$$$$$$$$$$$$$$$$$$$$$$$$$$$.++.$$$$$$$$$$$$$$$$$$$$$$$$$$$$$$$$$$$$$$$$$$$$$$$",
"$$$$$$$$$$$$$$$$$$$$$$$$$$$$$$$$$$$$$$$$$$$$$$$$..$$$$$$$$$$$$$$$$$$$$$$$$$$$$$$$$$$$$$$$$$$$$$$$$",
"$$$$$$$$$$$$$$$$$$$$$$$$$$$$$$$$$$$$$$$$$$$$$$$$..$$$$$$$$$$$$$$$$$$$$$$$$$$$$$$$$$$$$$$$$$$$$$$$$"
};
