/* XPM */
static char *_03cfd2e41ff4a3fb1a1300fa1c71e23q7QO4KEWQXVDo8RX[] = {
/* columns rows colors chars-per-pixel */
"48 48 19 1 ",
"  c black",
". c #150000",
"X c #041A09",
"o c #06240C",
"O c #08300D",
"+ c #AD1111",
"@ c #D43220",
"# c #FF3C26",
"$ c #985848",
"% c #FFC107",
"& c #C88870",
"* c #EDA17E",
"= c #A3A29D",
"- c #FF9580",
"; c #F8C0A0",
": c #CCCAC2",
"> c #EAE7DC",
", c #E6E6E6",
"< c white",
/* pixels */
"<<<        <<<<<<<<<<<<<<<<<<<<<<<<<<<<<<<<<<<<<",
"<<< +++++++   <<<<<<<<<<<<<<<<<<<<<<<<<<<<<<<<<<",
"<<<< ++####+++  <<<<<<<<<<<<<<<<<<<<<<<<<<<<<<<<",
"<<<<<  ++####-++  <<<<<<<<<<<<<<<<<<<<<<<<<<<<<<",
"<<<<<<<  ++#-###++ <<<<<<<<<<<<<<<<<<<<<<<<<<<<<",
"<<<<<<     +####@#+ <<<<<<<<<<<<<<<<<<<<<<<<<<<<",
"<<<<  +++++ +##@#@@+ <<<       <<<<<<<<<<<<<<<<<",
"<<< ++@@@+++++@#@@@@+   +++++++   <<<<<<<<<<<<<<",
"<< +@@@@+@+++++@@@@  +++@@@@@@@+++   <<<<<<<<<<<",
"< +@@@@@@+@+++++@  +++@@@@@######@+++  <<<<<<<<<",
" +@@@@@@+@++++++ +++@@@@###@##----##@++ <<<<<<<<",
" +@@@@@+++@@@@+ +++@@##@@###--####--##@+ <<<<<<<",
" +@@@@+@#@@@@@ +++@@@@###@#-########-##@+ <<<<<<",
" +@@@+##@#@@@ +++@+@@@@###@########-##@#@+ <<<<<",
" +@++##-#@#@  +++@+@@@@@####@##@#######+#@+ <<<<",
" ++ +###-#@+ ++++@+@@@+###@+@##@########+#+ <<<<",
" + +#####-+  ++@++@+@+@###+@##@+########+#+ <<<<",
"   +######+  @+@++@@++###@+@##@+########+@+ <<<<",
"<< +######+ +@+@@++@+@-##+@##@++#######-+@@+ <<<",
"<< +#####+  +@++@++++@#--+@#@+$+---#@--#+@@+ <<<",
"<<< +####+  +@++@@+++@##+@@++$$+####@###+@@+ <<<",
"<<< +####+  +@++@@+++###+++$$*$+####+##++@@+ <<<",
"<<< +####+  +@+++@+++###+$$*;;$+++++$++$@@@+ <<<",
"<<< +####+  +@@+++$++###+$*;;;*$$$$$;$$$$@+ <<<<",
"<<< +###+ < +@@++$;$+###+*;;....;;;;;***$@+ <<<<",
"<<<< +##+ < +@@++$&;+###+*;..+,..;;;**...@+ <<<<",
"<<<< +#+ << ++@++$;&+###+*..,+,,.;;**.+,.+ <<<<<",
"<<<< ++ <<<< ++++$&&+###+..,##,,;;;**,+,.+ <<<<<",
"<<<< + <<<<< ++++$;&+###+*..,,,;;;;**##,.+ <<<<<",
"<<<<  <<<<<< +++++$;+@##+*;..;;;;;;*;*..*+ <<<<<",
"<<<<<<<<<<<<< +++++$+@##+*;;;;;;;;;;;;***+ <<<<<",
"<<<<<<<<<<<<< +++++++@##+*;;;;;;;;;&;;;**+ <<<<<",
"<<<<<<<<<<<<<< ++++++@##+*;;;;;;;;;;&;;*++ <<<<<",
"<<<<<<<<<<<<<<< +++++@##+*;;;;;;;;&&;;;*+ <<<<<<",
"<<<<<<<<<<<<<<<< ++++@##+*;;;;;;;;;;;;;*+ <<<<<<",
"<<<<<<<<<<<<<<<<<  +++@#@+*;;;;;;;;;;;*++ <<<<<<",
"<<<<<<<<<<<<<<<<<<< $+@##+*;;;;&;;;;;;*++ <<<<<<",
"<<<<<<<<<<<<<<<<<<< $&+@@+*;;;;;;&&;;* ++ <<<<<<",
"<<<<<<<<<<<<<<<<<<< $&*++@+*;;;;;;;;**  + <<<<<<",
"<<<<<<<<<<<<<<<<<<  $&***++**;;;;;;** <<  <<<<<<",
"<<<<<<<<<<<<<<<<< ::$&****&&&**;;;** <<<<<<<<<<<",
"<<<<<<<<<<<<<<<< :%>:&*****&&&&&&&& <<<<<<<<<<<<",
"<<<<<<<<<<      X:>%>:&&****&&&::  <<<<<<<<<<<<<",
"<<<<<<<   OOOXXXXX:>>>::&&***&:>%:   <<<<<<<<<<<",
"<<<<   OOOXXXOOOXXX:>>>>::&*&:>%>:XXX   <<<<<<<<",
"<   OOOXXXOOOOOOOXXX::>>>>:&:>>>:XXOXXXX   <<<<<",
" OOOXXXOOOOOOOOOOOXXXX:>>>:=:>>:XXOOOOOOXXX   <<",
"OXXXOOOOOOOOOOOOOOOoXXX:::===::XXOOOOOOOOOOXXX <"
};
